<?xml version="1.0" encoding="UTF-8"?>
<svg version="1.1" xmlns="http://www.w3.org/2000/svg" width="200" height="160">
<path d="M0 0 C5.07826209 2.77867171 8.16314023 5.48942069 10 11 C10.0945342 12.49768312 10.13530629 13.99910644 10.1418457 15.49975586 C10.15239738 16.8614817 10.15239738 16.8614817 10.16316223 18.25071716 C10.16732651 19.22887894 10.17149078 20.20704071 10.17578125 21.21484375 C10.19897326 23.28321337 10.22309034 25.35157279 10.24804688 27.41992188 C10.28321053 30.68325696 10.31253576 33.94621498 10.32592773 37.2097168 C10.34137661 40.35772302 10.3815597 43.50462761 10.42578125 46.65234375 C10.42387283 47.62848129 10.42196442 48.60461884 10.41999817 49.6103363 C10.44486462 54.97249618 10.44486462 54.97249618 12.91088867 59.58422852 C16.90680617 62.29222496 20.27561286 62.33369277 25 62 C28.34084905 61.47158931 28.34084905 61.47158931 31 60 C33.60855906 55.4506284 33.31290012 50.66177877 33.34375 45.5703125 C33.3583728 44.66175507 33.37299561 43.75319763 33.38806152 42.81710815 C33.43444011 39.9197832 33.46869884 37.02252468 33.5 34.125 C33.54131097 30.31485709 33.59506081 26.5051823 33.65625 22.6953125 C33.6615271 21.82842804 33.6668042 20.96154358 33.67224121 20.06838989 C33.76435426 14.40876204 33.96712851 8.75811212 37.4453125 4.0390625 C41.72823205 0.43344186 45.29873963 -1.47229376 51 -1 C56.88030966 0.69432651 59.57192304 3.16036195 63 8 C63.95749799 10.87249397 64.13454772 12.71400067 64.15771484 15.69921875 C64.16797699 16.65030518 64.17823914 17.6013916 64.18881226 18.58129883 C64.19611359 19.60634521 64.20341492 20.6313916 64.2109375 21.6875 C64.23899532 23.8515702 64.2676597 26.01563261 64.296875 28.1796875 C64.33822148 31.59667838 64.37510393 35.013522 64.40136719 38.43066406 C64.42889047 41.72491569 64.47475014 45.01850247 64.5234375 48.3125 C64.5283168 49.85006958 64.5283168 49.85006958 64.53329468 51.41870117 C64.54986115 52.3697876 64.56642761 53.32087402 64.58349609 54.30078125 C64.59158295 55.13778564 64.5996698 55.97479004 64.60800171 56.8371582 C65.09466134 59.52229184 65.80036206 60.413926 68 62 C70.75733549 62.27164428 73.25113595 62.37364021 76 62.3125 C76.72445312 62.31572266 77.44890625 62.31894531 78.1953125 62.32226562 C81.9807029 62.28385299 83.78295894 62.14469404 87 60 C87.65690235 57.32011209 87.65690235 57.32011209 87.9375 54.25 C88.6772175 49.22834057 89.46182399 45.83302401 93 42 C97.72103779 38.7062527 102.40181448 38.08703426 108 39 C113.11762818 41.65358498 116.17705942 44.53117826 118 50 C118.39177998 54.15286777 118.25515206 56.48969587 116.375 60.25 C112.91813878 64.25268141 109.67377755 65.79351871 104.421875 66.44140625 C102.60429687 66.50134766 102.60429687 66.50134766 100.75 66.5625 C95.81943507 66.4436991 95.81943507 66.4436991 92 69 C91.67723225 71.71679864 91.67723225 71.71679864 91.69140625 74.890625 C91.66626953 76.07527344 91.64113281 77.25992188 91.61523438 78.48046875 C91.5802974 80.97781573 91.54900076 83.47521649 91.52148438 85.97265625 C91.49505859 87.16246094 91.46863281 88.35226563 91.44140625 89.578125 C91.42795166 90.66512695 91.41449707 91.75212891 91.40063477 92.87207031 C90.75173329 97.93832608 88.80741477 101.15503106 85.3125 104.8125 C81.41650034 107.38532996 78.6424669 108.3053073 74 108 C68.81888265 106.4456648 65.79646369 104.66077282 63 100 C61.12211242 93.93502032 60.80065356 88.62679835 61 82.3125 C61.3424738 74.91969385 61.3424738 74.91969385 59 68 C57.02373264 66.02373264 53.4365574 66.68065373 50.75 66.625 C50.08097656 66.58761719 49.41195312 66.55023438 48.72265625 66.51171875 C45.1602183 66.44872869 43.22810669 66.83903212 40.30419922 68.90234375 C37.04570308 73.28291156 37.32257114 76.76114958 37.3984375 82.0859375 C37.38642807 83.54865585 37.38642807 83.54865585 37.37417603 85.04092407 C37.35112578 88.15270664 37.36055778 91.26318254 37.375 94.375 C37.37885524 97.47943211 37.37533397 100.58328493 37.35440063 103.68765259 C37.34237273 105.61647115 37.34487907 107.5454524 37.36410522 109.47421265 C37.34086752 115.09511282 36.71708442 119.04190495 34 124 C31.3125 126.4375 31.3125 126.4375 29 128 C29.42152344 128.48210937 29.84304687 128.96421875 30.27734375 129.4609375 C30.82519531 130.09257812 31.37304688 130.72421875 31.9375 131.375 C32.48277344 132.00148437 33.02804688 132.62796875 33.58984375 133.2734375 C36.46924281 136.79890671 36.36855379 139.50364373 36 144 C34.65102536 147.58504673 32.72087237 150.34273402 29.875 152.9375 C25.51228171 154.54980893 21.57984772 154.88458118 17 154 C13.22217162 151.92427012 10.78415697 149.24158186 8.5 145.625 C7.57221421 140.75412462 8.24337765 136.58202855 10.375 132.125 C12 130 12 130 15 128 C14.236875 127.484375 13.47375 126.96875 12.6875 126.4375 C8.93409555 123.03324945 7.29149933 119.55706823 6.72412109 114.57995605 C6.6080102 111.76322552 6.58508138 108.95971754 6.59375 106.140625 C6.58291382 105.11443054 6.57207764 104.08823608 6.56091309 103.03094482 C6.51517154 98.66146242 6.5035168 94.29204249 6.48876953 89.92236328 C6.47312182 86.72406643 6.4401475 83.5262719 6.40625 80.328125 C6.40927124 79.33750061 6.41229248 78.34687622 6.41540527 77.32623291 C6.40529419 76.408078 6.39518311 75.4899231 6.38476562 74.54394531 C6.38271118 73.73677063 6.38065674 72.92959595 6.37854004 72.09796143 C5.90211123 69.45747653 5.1455218 68.57765335 3 67 C0.41586978 66.67367639 -1.85847049 66.53530026 -4.4375 66.5625 C-5.75621094 66.54316406 -7.07492188 66.52382812 -8.43359375 66.50390625 C-12.58310253 67.08111065 -13.46691992 67.77004934 -16 71 C-16.58861609 73.57963049 -16.58861609 73.57963049 -16.50390625 76.39453125 C-16.52259766 77.43287109 -16.54128906 78.47121094 -16.56054688 79.54101562 C-16.56119141 80.62060547 -16.56183594 81.70019531 -16.5625 82.8125 C-16.62832022 98.39308675 -16.62832022 98.39308675 -22.6875 104.875 C-26.58950363 107.37817214 -29.38815869 108.29494334 -34 108 C-39.88030966 106.30567349 -42.57192304 103.83963805 -46 99 C-47.05484611 95.83546166 -47.17063593 93.4502253 -47.24609375 90.125 C-47.27896484 88.97515625 -47.31183594 87.8253125 -47.34570312 86.640625 C-47.40689864 84.21363696 -47.46419075 81.78654735 -47.51757812 79.359375 C-47.56881836 77.63460937 -47.56881836 77.63460937 -47.62109375 75.875 C-47.6461499 74.82054688 -47.67120605 73.76609375 -47.69702148 72.6796875 C-47.8181977 69.77685286 -47.8181977 69.77685286 -50 67 C-53.14670208 66.5251197 -53.14670208 66.5251197 -56.75 66.5 C-62.76120316 66.34652247 -67.10153051 65.39873337 -71.8125 61.5 C-74.57352978 58.01238343 -74.28744224 54.23977305 -74 50 C-72.01155883 44.66260527 -69.09332352 41.54666176 -64 39 C-58.66557438 38.33727095 -54.0551922 38.60811973 -49.5 41.61328125 C-44.83209317 45.92866386 -43.52944655 52.05727729 -42.58984375 58.1171875 C-42.09396446 60.39103604 -42.09396446 60.39103604 -39 62 C-35.70673453 62.39477095 -35.70673453 62.39477095 -32.0625 62.375 C-30.22365234 62.41753906 -30.22365234 62.41753906 -28.34765625 62.4609375 C-25.05098918 62.24213352 -25.05098918 62.24213352 -22.82226562 60.625 C-19.9623172 56.50520292 -20.45554505 52.4380946 -20.49609375 47.5390625 C-20.48667252 46.51573822 -20.47725128 45.49241394 -20.46754456 44.43807983 C-20.43886104 41.16684994 -20.43581721 37.89634558 -20.4375 34.625 C-20.43389034 31.36090121 -20.42432043 28.09733204 -20.39674377 24.83334351 C-20.37998362 22.80332102 -20.37705743 20.77312447 -20.38975525 18.74307251 C-20.34460545 12.65865012 -19.78107351 8.04904153 -15.5 3.35546875 C-10.20947432 -0.76397703 -6.51747253 -1.60468074 0 0 Z " fill="#3AB4E0" transform="translate(76,6)"/>
<path d="M0 0 C5.07826209 2.77867171 8.16314023 5.48942069 10 11 C10.09936993 12.49754641 10.14550553 13.99896588 10.15771484 15.49975586 C10.16797699 16.40757309 10.17823914 17.31539032 10.18881226 18.25071716 C10.19611359 19.22887894 10.20341492 20.20704071 10.2109375 21.21484375 C10.23899949 23.28321113 10.26766391 25.35157041 10.296875 27.41992188 C10.33818524 30.68318512 10.37507088 33.94629601 10.40136719 37.2097168 C10.42893622 40.35757703 10.47480037 43.50474806 10.5234375 46.65234375 C10.52669037 47.62848129 10.52994324 48.60461884 10.53329468 49.6103363 C10.54986115 50.52130569 10.56642761 51.43227509 10.58349609 52.37084961 C10.59158295 53.17010361 10.5996698 53.9693576 10.60800171 54.79283142 C11.09078364 57.51116241 12.29202233 58.87288725 14 61 C14 61.66 14 62.32 14 63 C11.08482708 61.92598892 9.22189824 61.22189824 7 59 C5.99983813 61.00032373 5.50603992 62.83125748 5 65 C4.195625 64.979375 3.39125 64.95875 2.5625 64.9375 C0.06645115 64.70366379 0.06645115 64.70366379 -1 66 C-3.74499515 66.20417319 -6.48784332 66.31928899 -9.23828125 66.42578125 C-12.72745572 67.15125317 -13.77786908 68.24904044 -16 71 C-16.58861609 73.57963049 -16.58861609 73.57963049 -16.50390625 76.39453125 C-16.52259766 77.43287109 -16.54128906 78.47121094 -16.56054688 79.54101562 C-16.56119141 80.62060547 -16.56183594 81.70019531 -16.5625 82.8125 C-16.62832022 98.39308675 -16.62832022 98.39308675 -22.6875 104.875 C-26.58950363 107.37817214 -29.38815869 108.29494334 -34 108 C-39.88030966 106.30567349 -42.57192304 103.83963805 -46 99 C-47.05484611 95.83546166 -47.17063593 93.4502253 -47.24609375 90.125 C-47.27896484 88.97515625 -47.31183594 87.8253125 -47.34570312 86.640625 C-47.40689864 84.21363696 -47.46419075 81.78654735 -47.51757812 79.359375 C-47.56881836 77.63460937 -47.56881836 77.63460937 -47.62109375 75.875 C-47.6461499 74.82054688 -47.67120605 73.76609375 -47.69702148 72.6796875 C-47.8181977 69.77685286 -47.8181977 69.77685286 -50 67 C-53.14670208 66.5251197 -53.14670208 66.5251197 -56.75 66.5 C-62.76120316 66.34652247 -67.10153051 65.39873337 -71.8125 61.5 C-74.57352978 58.01238343 -74.28744224 54.23977305 -74 50 C-72.01155883 44.66260527 -69.09332352 41.54666176 -64 39 C-58.66557438 38.33727095 -54.0551922 38.60811973 -49.5 41.61328125 C-44.83209317 45.92866386 -43.52944655 52.05727729 -42.58984375 58.1171875 C-42.09396446 60.39103604 -42.09396446 60.39103604 -39 62 C-35.70673453 62.39477095 -35.70673453 62.39477095 -32.0625 62.375 C-30.22365234 62.41753906 -30.22365234 62.41753906 -28.34765625 62.4609375 C-25.05098918 62.24213352 -25.05098918 62.24213352 -22.82226562 60.625 C-19.9623172 56.50520292 -20.45554505 52.4380946 -20.49609375 47.5390625 C-20.48667252 46.51573822 -20.47725128 45.49241394 -20.46754456 44.43807983 C-20.43886104 41.16684994 -20.43581721 37.89634558 -20.4375 34.625 C-20.43389034 31.36090121 -20.42432043 28.09733204 -20.39674377 24.83334351 C-20.37998362 22.80332102 -20.37705743 20.77312447 -20.38975525 18.74307251 C-20.34460545 12.65865012 -19.78107351 8.04904153 -15.5 3.35546875 C-10.20947432 -0.76397703 -6.51747253 -1.60468074 0 0 Z " fill="#40AAE2" transform="translate(76,6)"/>
<path d="M0 0 C5.07826209 2.77867171 8.16314023 5.48942069 10 11 C10.11448477 12.57961159 10.17622932 14.16333852 10.20532227 15.74682617 C10.2352401 17.18798042 10.2352401 17.18798042 10.26576233 18.6582489 C10.28247482 19.69270645 10.29918732 20.727164 10.31640625 21.79296875 C10.33718735 22.85413406 10.35796844 23.91529938 10.37937927 25.00862122 C10.44481238 28.40151437 10.50373093 31.7944855 10.5625 35.1875 C10.60569114 37.48633622 10.64930562 39.78516453 10.69335938 42.08398438 C10.8004874 47.7225736 10.90226551 53.36124056 11 59 C10.34 58.67 9.68 58.34 9 58 C9 44.47 9 30.94 9 17 C7.35 17.33 5.7 17.66 4 18 C4.33 16.35 4.66 14.7 5 13 C5.66 13 6.32 13 7 13 C6.525625 12.071875 6.05125 11.14375 5.5625 10.1875 C4 7 4 7 3 4 C-0.68935248 2.37668491 -5.06718918 2.8097027 -9 3 C-11.5654594 5.5654594 -11.54046087 7.47686668 -12 11 C-12.99 11.33 -13.98 11.66 -15 12 C-15 12.66 -15 13.32 -15 14 C-15.66 14 -16.32 14 -17 14 C-16.99476318 14.89831543 -16.98952637 15.79663086 -16.98413086 16.72216797 C-16.96710275 20.05062499 -16.95455663 23.37903581 -16.94506836 26.70751953 C-16.94003526 28.1489332 -16.93320827 29.59034176 -16.92456055 31.03173828 C-16.91245017 33.10190085 -16.90676153 35.17199601 -16.90234375 37.2421875 C-16.89710693 38.4885498 -16.89187012 39.73491211 -16.88647461 41.01904297 C-17 44 -17 44 -18 46 C-18.2787918 49.24372049 -18.44687219 52.48738099 -18.62109375 55.73828125 C-19.07478101 59.64373341 -19.46027418 62.77983992 -22.65625 65.3125 C-27.1500894 66.63069289 -31.83266549 66.02101841 -36.46875 65.875 C-39.85100879 65.99472597 -41.15679742 66.41454785 -44 68 C-44.02921779 72.02081788 -44.04687188 76.04160814 -44.0625 80.0625 C-44.07087891 81.19623047 -44.07925781 82.32996094 -44.08789062 83.49804688 C-44.10424847 89.10878867 -44.01812097 94.47649331 -43 100 C-42.34 100 -41.68 100 -41 100 C-40.67 101.65 -40.34 103.3 -40 105 C-43.80778716 102.29446702 -45.60436894 100.45155444 -47 96 C-47.28710938 93.09326172 -47.28710938 93.09326172 -47.34375 89.9296875 C-47.37339844 88.78628906 -47.40304688 87.64289063 -47.43359375 86.46484375 C-47.47800905 84.06380475 -47.52227895 81.66276306 -47.56640625 79.26171875 C-47.59605469 78.12089844 -47.62570313 76.98007813 -47.65625 75.8046875 C-47.67494141 74.76296387 -47.69363281 73.72124023 -47.71289062 72.64794922 C-47.81853911 69.771933 -47.81853911 69.771933 -50 67 C-53.14670208 66.5251197 -53.14670208 66.5251197 -56.75 66.5 C-62.76120316 66.34652247 -67.10153051 65.39873337 -71.8125 61.5 C-74.57352978 58.01238343 -74.28744224 54.23977305 -74 50 C-72.01155883 44.66260527 -69.09332352 41.54666176 -64 39 C-58.66557438 38.33727095 -54.0551922 38.60811973 -49.5 41.61328125 C-44.83209317 45.92866386 -43.52944655 52.05727729 -42.58984375 58.1171875 C-42.09396446 60.39103604 -42.09396446 60.39103604 -39 62 C-35.70673453 62.39477095 -35.70673453 62.39477095 -32.0625 62.375 C-30.22365234 62.41753906 -30.22365234 62.41753906 -28.34765625 62.4609375 C-25.05098918 62.24213352 -25.05098918 62.24213352 -22.82226562 60.625 C-19.9623172 56.50520292 -20.45554505 52.4380946 -20.49609375 47.5390625 C-20.48667252 46.51573822 -20.47725128 45.49241394 -20.46754456 44.43807983 C-20.43886104 41.16684994 -20.43581721 37.89634558 -20.4375 34.625 C-20.43389034 31.36090121 -20.42432043 28.09733204 -20.39674377 24.83334351 C-20.37998362 22.80332102 -20.37705743 20.77312447 -20.38975525 18.74307251 C-20.34460545 12.65865012 -19.78107351 8.04904153 -15.5 3.35546875 C-10.20947432 -0.76397703 -6.51747253 -1.60468074 0 0 Z " fill="#42ACE2" transform="translate(76,6)"/>
<path d="M0 0 C0 0.66 0 1.32 0 2 C5.94 2.33 11.88 2.66 18 3 C18.33 3.66 18.66 4.32 19 5 C18.34 5 17.68 5 17 5 C17 5.66 17 6.32 17 7 C18.32 7 19.64 7 21 7 C22.4041493 11.8922625 22.26283595 16.75669989 22.3125 21.8125 C22.34150391 22.78509766 22.37050781 23.75769531 22.40039062 24.75976562 C22.45609499 31.08863851 21.67104284 34.80840687 18 40 C17.34 40 16.68 40 16 40 C16 40.66 16 41.32 16 42 C14.02 42.495 14.02 42.495 12 43 C12 43.66 12 44.32 12 45 C5.2960802 44.8361264 1.68068575 43.90901189 -3 39 C-6.43494861 33.92936157 -6.11821932 27.53124745 -6.0625 21.625 C-6.05347656 20.37976563 -6.04445312 19.13453125 -6.03515625 17.8515625 C-6.02355469 16.91054687 -6.01195312 15.96953125 -6 15 C-5.34 15 -4.68 15 -4 15 C-4.33 11.04 -4.66 7.08 -5 3 C-5.66 3 -6.32 3 -7 3 C-7 2.34 -7 1.68 -7 1 C-4.53721199 -0.231394 -2.7204945 -0.07159196 0 0 Z " fill="#32BEDF" transform="translate(143,69)"/>
<path d="M0 0 C0.66 0.33 1.32 0.66 2 1 C1.98839844 1.67546875 1.97679688 2.3509375 1.96484375 3.046875 C1.95582031 3.93890625 1.94679688 4.8309375 1.9375 5.75 C1.92589844 6.63171875 1.91429688 7.5134375 1.90234375 8.421875 C1.9938835 10.83852441 2.12989624 12.74564027 3 15 C5.98352894 16.78379415 5.98352894 16.78379415 9 18 C9 18.66 9 19.32 9 20 C9.66 20 10.32 20 11 20 C11 24 11 24 8.625 26.75 C6 29 6 29 4 29 C4 32.3 4 35.6 4 39 C9.86078027 40.76929216 13.38922492 41.73696345 19 39 C21.27191416 36.97959252 21.27191416 36.97959252 23 35 C22.071875 34.505 22.071875 34.505 21.125 34 C18.05426106 31.10989276 17.78078018 28.02758887 17 24 C16.81824219 23.33871094 16.63648437 22.67742187 16.44921875 21.99609375 C16 20 16 20 16 16 C17.11375 15.773125 18.2275 15.54625 19.375 15.3125 C21.40349535 14.62206843 21.40349535 14.62206843 23 13 C24.26082778 8.7142678 24.68916156 4.4468928 25 0 C25.33 0 25.66 0 26 0 C27.71222566 13.32484524 27.71222566 13.32484524 26.0234375 17.296875 C24.27093695 19.36708033 22.42297039 20.7885148 20 22 C20.63228516 22.72316406 20.63228516 22.72316406 21.27734375 23.4609375 C21.82519531 24.09257812 22.37304688 24.72421875 22.9375 25.375 C23.48277344 26.00148437 24.02804688 26.62796875 24.58984375 27.2734375 C27.46924281 30.79890671 27.36855379 33.50364373 27 38 C25.65102536 41.58504673 23.72087237 44.34273402 20.875 46.9375 C16.51228171 48.54980893 12.57984772 48.88458118 8 48 C4.22217162 45.92427012 1.78415697 43.24158186 -0.5 39.625 C-1.42778579 34.75412462 -0.75662235 30.58202855 1.375 26.125 C3 24 3 24 6 22 C5.195625 21.443125 4.39125 20.88625 3.5625 20.3125 C0.58867775 17.62880675 0.47646586 16.85504198 0 13 C-0.06652855 10.73004581 -0.08543751 8.45831305 -0.0625 6.1875 C-0.05347656 5.02605469 -0.04445313 3.86460938 -0.03515625 2.66796875 C-0.02355469 1.78753906 -0.01195313 0.90710938 0 0 Z " fill="#35D7DA" transform="translate(85,112)"/>
<path d="M0 0 C5.07826209 2.77867171 8.16314023 5.48942069 10 11 C10.11448477 12.57961159 10.17622932 14.16333852 10.20532227 15.74682617 C10.2352401 17.18798042 10.2352401 17.18798042 10.26576233 18.6582489 C10.28247482 19.69270645 10.29918732 20.727164 10.31640625 21.79296875 C10.33718735 22.85413406 10.35796844 23.91529938 10.37937927 25.00862122 C10.44481238 28.40151437 10.50373093 31.7944855 10.5625 35.1875 C10.60569114 37.48633622 10.64930562 39.78516453 10.69335938 42.08398438 C10.8004874 47.7225736 10.90226551 53.36124056 11 59 C10.01 58.505 10.01 58.505 9 58 C9 44.47 9 30.94 9 17 C7.35 17.33 5.7 17.66 4 18 C4.33 16.35 4.66 14.7 5 13 C5.66 13 6.32 13 7 13 C6.525625 12.071875 6.05125 11.14375 5.5625 10.1875 C4 7 4 7 3 4 C-0.68935248 2.37668491 -5.06718918 2.8097027 -9 3 C-11.5654594 5.5654594 -11.54046087 7.47686668 -12 11 C-12.99 11.33 -13.98 11.66 -15 12 C-15 12.66 -15 13.32 -15 14 C-15.66 14 -16.32 14 -17 14 C-16.99214478 15.34747314 -16.99214478 15.34747314 -16.98413086 16.72216797 C-16.96710275 20.05062499 -16.95455663 23.37903581 -16.94506836 26.70751953 C-16.94003526 28.1489332 -16.93320827 29.59034176 -16.92456055 31.03173828 C-16.91245017 33.10190085 -16.90676153 35.17199601 -16.90234375 37.2421875 C-16.89448853 39.11173096 -16.89448853 39.11173096 -16.88647461 41.01904297 C-17 44 -17 44 -18 46 C-18.2787918 49.24372049 -18.44687219 52.48738099 -18.62109375 55.73828125 C-18.99162337 58.92789193 -19.45424245 61.19179094 -21 64 C-24.16198607 66.34849972 -27.21277021 66.26908168 -31.0625 66.25 C-32.62677734 66.25773437 -32.62677734 66.25773437 -34.22265625 66.265625 C-37 66 -37 66 -40 64 C-39.67 63.34 -39.34 62.68 -39 62 C-38.03578125 62.04640625 -37.0715625 62.0928125 -36.078125 62.140625 C-34.81484375 62.17671875 -33.5515625 62.2128125 -32.25 62.25 C-30.37054688 62.31960937 -30.37054688 62.31960937 -28.453125 62.390625 C-25.0635431 62.25953238 -25.0635431 62.25953238 -22.81567383 60.62939453 C-19.96708702 56.504172 -20.4555531 52.43712184 -20.49609375 47.5390625 C-20.48667252 46.51573822 -20.47725128 45.49241394 -20.46754456 44.43807983 C-20.43886104 41.16684994 -20.43581721 37.89634558 -20.4375 34.625 C-20.43389034 31.36090121 -20.42432043 28.09733204 -20.39674377 24.83334351 C-20.37998362 22.80332102 -20.37705743 20.77312447 -20.38975525 18.74307251 C-20.34460545 12.65865012 -19.78107351 8.04904153 -15.5 3.35546875 C-10.20947432 -0.76397703 -6.51747253 -1.60468074 0 0 Z " fill="#6794D1" transform="translate(76,6)"/>
<path d="M0 0 C4.73986048 2.81178164 7.21601788 5.79764475 9 11 C9.24050903 13.42353821 9.24050903 13.42353821 9.22705078 15.97387695 C9.22689972 16.93449539 9.22674866 17.89511383 9.22659302 18.88484192 C9.21627045 19.9089769 9.20594788 20.93311188 9.1953125 21.98828125 C9.1924826 23.04661667 9.18965271 24.10495209 9.18673706 25.19535828 C9.1755629 28.56785498 9.15046307 31.94008387 9.125 35.3125 C9.11496664 37.6022097 9.10584141 39.89192357 9.09765625 42.18164062 C9.0756326 47.78785143 9.04218236 53.39390658 9 59 C8.67 59 8.34 59 8 59 C6.90850296 43.25125706 6.62177388 27.75115564 8 12 C7.34 12 6.68 12 6 12 C5.67 10.35 5.34 8.7 5 7 C4.4225 7.350625 3.845 7.70125 3.25 8.0625 C1 9 1 9 -1.1875 8.8125 C-1.785625 8.544375 -2.38375 8.27625 -3 8 C-3.33 7.01 -3.66 6.02 -4 5 C-5.65 4.67 -7.3 4.34 -9 4 C-9.556875 5.11375 -9.556875 5.11375 -10.125 6.25 C-12.34198022 9.50157098 -14.60808343 11.05145218 -18 13 C-18.66 13 -19.32 13 -20 13 C-19.93070495 9.53524726 -19.80173399 6.9315778 -17.48046875 4.234375 C-11.83939039 -0.65851823 -7.30780967 -1.97541124 0 0 Z " fill="#6391DA" transform="translate(131,6)"/>
<path d="M0 0 C0.99 0.33 1.98 0.66 3 1 C3.14924688 6.53170182 3.25763603 12.06221092 3.32958984 17.59545898 C3.35960914 19.4742476 3.40043883 21.35289789 3.45263672 23.23120117 C3.96220237 42.05016014 3.96220237 42.05016014 -1.36499023 48.6015625 C-5.91550778 52.49365814 -11.30847179 52.23230727 -17 52 C-17 51.34 -17 50.68 -17 50 C-17.66 50 -18.32 50 -19 50 C-19 49.34 -19 48.68 -19 48 C-18.34773438 48.02320313 -17.69546875 48.04640625 -17.0234375 48.0703125 C-9.7806748 48.27434328 -9.7806748 48.27434328 -3 46 C-0.41088543 41.4396913 -0.65354745 36.64109461 -0.5859375 31.54296875 C-0.56657135 30.64000565 -0.5472052 29.73704254 -0.5272522 28.80671692 C-0.46765918 25.93373953 -0.42115231 23.06072163 -0.375 20.1875 C-0.33680155 18.23500895 -0.29774873 16.28253441 -0.2578125 14.33007812 C-0.16197431 9.55352016 -0.07786848 4.77688333 0 0 Z " fill="#58A2D9" transform="translate(110,20)"/>
<path d="M0 0 C0.33 0 0.66 0 1 0 C1 3.3 1 6.6 1 10 C2.32 10.66 3.64 11.32 5 12 C5.33 12.33 5.66 12.66 6 13 C8.63746756 13.12685806 11.23709166 13.18520617 13.875 13.1875 C14.60847656 13.19974609 15.34195313 13.21199219 16.09765625 13.22460938 C19.93563514 13.23509566 21.73347074 13.17768617 25 11 C25.80092254 8.35308332 25.80092254 8.35308332 26.1875 5.375 C26.42533203 3.87066406 26.42533203 3.87066406 26.66796875 2.3359375 C26.77753906 1.56507812 26.88710937 0.79421875 27 0 C27.33 0 27.66 0 28 0 C28.495 5.94 28.495 5.94 29 12 C27.02 12.99 27.02 12.99 25 14 C24.67 14.99 24.34 15.98 24 17 C21.43721301 17.05420701 18.87558517 17.09377007 16.3125 17.125 C15.59126953 17.14175781 14.87003906 17.15851563 14.12695312 17.17578125 C9.90933553 17.21429831 6.81564701 16.76957542 3 15 C0.29113059 14.83201738 0.29113059 14.83201738 -2 15 C-2 15.66 -2 16.32 -2 17 C-1.34 17 -0.68 17 0 17 C0.96070434 19.88211302 1.10581883 21.69850044 1.0625 24.6875 C1.05347656 25.49574219 1.04445312 26.30398437 1.03515625 27.13671875 C1.02355469 27.75160156 1.01195312 28.36648437 1 29 C0.67 29 0.34 29 0 29 C-0.12117187 28.37351562 -0.24234375 27.74703125 -0.3671875 27.1015625 C-0.53476563 26.28429687 -0.70234375 25.46703125 -0.875 24.625 C-1.03742188 23.81289062 -1.19984375 23.00078125 -1.3671875 22.1640625 C-1.86658932 19.81326077 -1.86658932 19.81326077 -4 18 C-6.06874034 17.3574765 -6.06874034 17.3574765 -8 17 C-8 16.01 -8 15.02 -8 14 C-7.01 13.67 -6.02 13.34 -5 13 C-4.67 12.34 -4.34 11.68 -4 11 C-3.01 11 -2.02 11 -1 11 C-0.67 7.37 -0.34 3.74 0 0 Z " fill="#4CB5E0" transform="translate(138,55)"/>
<path d="M0 0 C0.33 0 0.66 0 1 0 C1.14628834 4.16629205 1.23440421 8.33191597 1.3125 12.5 C1.35439453 13.67304687 1.39628906 14.84609375 1.43945312 16.0546875 C1.54001373 23.21460267 1.10178188 28.63303557 -4 34 C-8.80642562 36.67023646 -12.78338477 35.95637946 -18 35 C-18.66 34.67 -19.32 34.34 -20 34 C-20.33333333 32 -20.66666667 30 -21 28 C-21.66 27.67 -22.32 27.34 -23 27 C-21.02 26.67 -19.04 26.34 -17 26 C-16.31292445 28.49064888 -16 30.37886292 -16 33 C-14.51882199 32.71872579 -13.04006751 32.42466268 -11.5625 32.125 C-10.32693359 31.88136719 -10.32693359 31.88136719 -9.06640625 31.6328125 C-8.38449219 31.42398438 -7.70257813 31.21515625 -7 31 C-6.67 30.34 -6.34 29.68 -6 29 C-6.66 28.67 -7.32 28.34 -8 28 C-7.54625 27.62875 -7.0925 27.2575 -6.625 26.875 C-4.54015941 24.46941471 -3.97864965 22.00119225 -3 19 C-2.34 18.67 -1.68 18.34 -1 18 C-0.67 12.06 -0.34 6.12 0 0 Z " fill="#3BC6E0" transform="translate(56,78)"/>
<path d="M0 0 C0.66 0 1.32 0 2 0 C2 0.66 2 1.32 2 2 C2.66 2 3.32 2 4 2 C6.65557612 6.94522384 6.17834311 11.78446239 6.01171875 17.2265625 C5.98906448 18.21119476 5.96641022 19.19582703 5.94306946 20.21029663 C5.89321507 22.28648218 5.83826743 24.36255087 5.77856445 26.43847656 C5.68763544 29.62026064 5.61300475 32.80211162 5.54101562 35.984375 C5.49053877 38.00262829 5.43913815 40.02085873 5.38671875 42.0390625 C5.36373215 42.99221344 5.34074554 43.94536438 5.31706238 44.92739868 C5.29066177 45.81196747 5.26426117 46.69653625 5.23706055 47.60791016 C5.21548386 48.38558746 5.19390717 49.16326477 5.17167664 49.96450806 C5 52 5 52 4 55 C1.33382583 49.99300624 1.6679088 44.86000094 1.62109375 39.3359375 C1.59560204 37.79240097 1.59560204 37.79240097 1.56959534 36.21768188 C1.51655724 32.93684993 1.476205 29.65602989 1.4375 26.375 C1.3935529 23.08689265 1.34685034 19.79888238 1.29469299 16.51089478 C1.26277117 14.46651513 1.23587013 12.42204973 1.21446228 10.37753296 C1.20097244 9.45292267 1.1874826 8.52831238 1.17358398 7.57568359 C1.16407211 6.7624765 1.15456024 5.94926941 1.14476013 5.11141968 C1.07549286 2.80881655 1.07549286 2.80881655 0 0 Z " fill="#55BFD5" transform="translate(81,73)"/>
<path d="M0 0 C1.41750563 0.11509661 2.83401169 0.24253658 4.25 0.375 C5.03890625 0.44460937 5.8278125 0.51421875 6.640625 0.5859375 C9.10494192 1.01841696 10.77749462 1.88874731 13 3 C15.2220273 3.37652695 15.2220273 3.37652695 17.5 3.5 C20.85269843 3.72963688 23.03459794 4.44106356 26 6 C26.02505615 6.75095947 26.0501123 7.50191895 26.07592773 8.27563477 C26.19254942 11.70473533 26.31497417 15.13360553 26.4375 18.5625 C26.47681641 19.74392578 26.51613281 20.92535156 26.55664062 22.14257812 C26.7637504 27.83013123 27.01968432 33.38995814 28 39 C28.66 39 29.32 39 30 39 C30.33 40.65 30.66 42.3 31 44 C27.19221284 41.29446702 25.39563106 39.45155444 24 35 C23.71289062 32.09326172 23.71289062 32.09326172 23.65625 28.9296875 C23.62660156 27.78628906 23.59695312 26.64289063 23.56640625 25.46484375 C23.52199095 23.06380475 23.47772105 20.66276306 23.43359375 18.26171875 C23.40394531 17.12089844 23.37429687 15.98007813 23.34375 14.8046875 C23.32505859 13.76296387 23.30636719 12.72124023 23.28710938 11.64794922 C23.18146089 8.771933 23.18146089 8.771933 21 6 C17.85329792 5.5251197 17.85329792 5.5251197 14.25 5.5 C9.02253898 5.36653291 5.50031846 4.7486975 1 2 C0.67 1.34 0.34 0.68 0 0 Z " fill="#66BFD7" transform="translate(5,67)"/>
<path d="M0 0 C1.22589844 0.01353516 1.22589844 0.01353516 2.4765625 0.02734375 C3.41628906 0.04474609 3.41628906 0.04474609 4.375 0.0625 C4.705 1.0525 5.035 2.0425 5.375 3.0625 C4.69953125 3.08828125 4.0240625 3.1140625 3.328125 3.140625 C1.99007812 3.22570312 1.99007812 3.22570312 0.625 3.3125 C-0.25671875 3.35890625 -1.1384375 3.4053125 -2.046875 3.453125 C-5.37267897 4.23922412 -6.4812354 5.4273569 -8.625 8.0625 C-9.21361609 10.64213049 -9.21361609 10.64213049 -9.12890625 13.45703125 C-9.14759766 14.49537109 -9.16628906 15.53371094 -9.18554688 16.60351562 C-9.18619141 17.68310547 -9.18683594 18.76269531 -9.1875 19.875 C-9.24351507 33.13456676 -9.24351507 33.13456676 -12.625 39.0625 C-13.615 39.5575 -13.615 39.5575 -14.625 40.0625 C-14.29991455 39.37478516 -13.9748291 38.68707031 -13.63989258 37.97851562 C-12.470963 34.61991691 -12.38548194 31.95837 -12.38671875 28.40625 C-12.37060547 27.13652344 -12.35449219 25.86679688 -12.33789062 24.55859375 C-12.32096385 21.89457993 -12.31575522 19.23046589 -12.32226562 16.56640625 C-12.30228516 15.29667969 -12.28230469 14.02695313 -12.26171875 12.71875 C-12.25873779 11.56181641 -12.25575684 10.40488281 -12.25268555 9.21289062 C-11.44279404 5.14799759 -9.76700527 3.67129312 -6.625 1.0625 C-4.21954362 -0.14022819 -2.67503047 -0.03821472 0 0 Z " fill="#5AB5D0" transform="translate(68.625,68.9375)"/>
<path d="M0 0 C2.10595536 3.15893304 2.24156267 3.80653124 2.16699219 7.39208984 C2.15327576 8.27665863 2.13955933 9.16122742 2.12542725 10.07260132 C2.099505 11.02575226 2.07358276 11.9789032 2.046875 12.9609375 C2.02659241 13.94365631 2.00630981 14.92637512 1.9854126 15.93887329 C1.93982378 18.01861049 1.88904776 20.09823945 1.83349609 22.17773438 C1.75051382 25.35532477 1.68852651 28.53283271 1.62890625 31.7109375 C1.58199282 33.73180056 1.53385593 35.75263567 1.484375 37.7734375 C1.46654968 38.72253998 1.44872437 39.67164246 1.43035889 40.64950562 C1.18143134 49.07352232 1.18143134 49.07352232 -1 53 C-4.16198607 55.34849972 -7.21277021 55.26908168 -11.0625 55.25 C-12.62677734 55.25773437 -12.62677734 55.25773437 -14.22265625 55.265625 C-17 55 -17 55 -20 53 C-19.67 52.34 -19.34 51.68 -19 51 C-18.03578125 51.04640625 -17.0715625 51.0928125 -16.078125 51.140625 C-14.81484375 51.17671875 -13.5515625 51.2128125 -12.25 51.25 C-10.37054688 51.31960937 -10.37054688 51.31960937 -8.453125 51.390625 C-5.06654353 51.2583015 -5.06654353 51.2583015 -2.82226562 49.64257812 C0.05473912 45.4704587 -0.396668 41.28308516 -0.390625 36.328125 C-0.37408875 35.29057068 -0.35755249 34.25301636 -0.34051514 33.184021 C-0.29196015 29.8726209 -0.27064698 26.56168029 -0.25 23.25 C-0.22184668 21.00388304 -0.19192016 18.75778755 -0.16015625 16.51171875 C-0.08619938 11.00789613 -0.0346008 5.50420313 0 0 Z " fill="#63ACD4" transform="translate(56,17)"/>
<path d="M0 0 C0.99 0.33 1.98 0.66 3 1 C2.67 2.98 2.34 4.96 2 7 C1.01 7.33 0.02 7.66 -1 8 C-1 8.66 -1 9.32 -1 10 C-1.66 10 -2.32 10 -3 10 C-2.98952637 10.89831543 -2.97905273 11.79663086 -2.96826172 12.72216797 C-2.9342053 16.05064447 -2.90911382 19.37893622 -2.89013672 22.70751953 C-2.88007037 24.14895547 -2.8664162 25.59037095 -2.84912109 27.03173828 C-2.82489988 29.10193934 -2.81352359 31.17187076 -2.8046875 33.2421875 C-2.79421387 34.4885498 -2.78374023 35.73491211 -2.77294922 37.01904297 C-3 40 -3 40 -5 42 C-5 30.12 -5 18.24 -5 6 C-4.34 6 -3.68 6 -3 6 C-2.87625 5.38125 -2.7525 4.7625 -2.625 4.125 C-2 2 -2 2 0 0 Z " fill="#5BA3E6" transform="translate(62,10)"/>
<path d="M0 0 C0.33 0 0.66 0 1 0 C1.01458252 0.65073486 1.02916504 1.30146973 1.04418945 1.97192383 C1.11864549 4.91938306 1.21531266 7.86570642 1.3125 10.8125 C1.33505859 11.83666016 1.35761719 12.86082031 1.38085938 13.91601562 C1.41630859 14.89892578 1.45175781 15.88183594 1.48828125 16.89453125 C1.51446533 17.80050049 1.54064941 18.70646973 1.56762695 19.63989258 C2.07588041 22.41419305 2.91957109 23.18504249 5 25 C5.66957496 27.67318858 5.77362708 30.23825037 6 33 C2.14690368 31.53848071 0.75981224 29.68722565 -1 26 C-1.95982085 21.49921847 -2.10583745 17.21876992 -2.0625 12.625 C-2.05347656 11.37976563 -2.04445312 10.13453125 -2.03515625 8.8515625 C-2.02355469 7.91054687 -2.01195312 6.96953125 -2 6 C-1.34 6 -0.68 6 0 6 C0 4.02 0 2.04 0 0 Z " fill="#44C5DC" transform="translate(139,78)"/>
<path d="M0 0 C3.84262115 1.35189731 6.47485287 3.32715524 9 6.5625 C10 9 10 9 9 12 C8.59007813 11.43410156 8.18015625 10.86820313 7.7578125 10.28515625 C7.21898438 9.55167969 6.68015625 8.81820312 6.125 8.0625 C5.59132813 7.33160156 5.05765625 6.60070313 4.5078125 5.84765625 C3.11987896 3.88901765 3.11987896 3.88901765 1 3 C-5.7702757 2.64124868 -5.7702757 2.64124868 -12 5 C-15.07481691 8.16022849 -16.68424128 10.57937789 -17 15 C-16.73128549 17.34165499 -16.40961596 19.67884289 -16 22 C-18 21 -18 21 -19 18 C-19.39614654 12.75105833 -18.86557317 9.44657906 -16 5 C-10.72507375 0.2397007 -6.99148249 -0.82387355 0 0 Z " fill="#65A8D2" transform="translate(21,45)"/>
<path d="M0 0 C5.86586841 5.56505464 5.86586841 5.56505464 6.12025452 10.18302917 C6.11803391 11.02908218 6.11581329 11.87513519 6.11352539 12.74682617 C6.11341209 14.18798042 6.11341209 14.18798042 6.11329651 15.6582489 C6.10813522 16.69270645 6.10297394 17.727164 6.09765625 18.79296875 C6.0962413 19.85413406 6.09482635 20.91529938 6.09336853 22.00862122 C6.08776606 25.40160935 6.07521314 28.79453177 6.0625 32.1875 C6.05748532 34.48632717 6.05292236 36.78515538 6.04882812 39.08398438 C6.03779583 44.72267872 6.0210553 50.36133466 6 56 C5.67 56 5.34 56 5 56 C3.90850296 40.25125706 3.62177388 24.75115564 5 9 C4.34 9 3.68 9 3 9 C2.01 6.03 1.02 3.06 0 0 Z " fill="#5EA3D6" transform="translate(134,9)"/>
<path d="M0 0 C0.66 0 1.32 0 2 0 C2.08738991 4.37487331 2.140524 8.74952078 2.1875 13.125 C2.22520508 14.98125 2.22520508 14.98125 2.26367188 16.875 C2.27817383 18.67324219 2.27817383 18.67324219 2.29296875 20.5078125 C2.31653442 22.15740967 2.31653442 22.15740967 2.34057617 23.84033203 C1.81099617 28.75346778 -0.14715744 32.79703198 -4 35.9375 C-5.485 36.9584375 -5.485 36.9584375 -7 38 C-7.99 37.67 -8.98 37.34 -10 37 C-8.02 36.505 -8.02 36.505 -6 36 C-6 35.34 -6 34.68 -6 34 C-5.34 34 -4.68 34 -4 34 C-3.690625 33.21625 -3.38125 32.4325 -3.0625 31.625 C-2 29 -2 29 -1 27 C-0.84588894 24.9692523 -0.75017547 22.93393579 -0.68359375 20.8984375 C-0.64169922 19.68671875 -0.59980469 18.475 -0.55664062 17.2265625 C-0.51732422 15.95554687 -0.47800781 14.68453125 -0.4375 13.375 C-0.39431641 12.09625 -0.35113281 10.8175 -0.30664062 9.5 C-0.20030114 6.33344652 -0.09827167 3.16681247 0 0 Z " fill="#5DBACF" transform="translate(165,75)"/>
<path d="M0 0 C2 3 2 3 2 5 C1.01 5 0.02 5 -1 5 C-1 5.99 -1 6.98 -1 8 C-4.69007882 9.18082522 -8.14880946 9.28527337 -12 9 C-12.66 8.01 -13.32 7.02 -14 6 C-14.99 6.495 -14.99 6.495 -16 7 C-16 5.68 -16 4.36 -16 3 C-15.071875 3.165 -14.14375 3.33 -13.1875 3.5 C-8.69336158 4.20496289 -6.10428114 3.8942836 -2 2 C-1.34 1.34 -0.68 0.68 0 0 Z " fill="#1BE5DA" transform="translate(106,149)"/>
<path d="M0 0 C0.66 0.33 1.32 0.66 2 1 C2.0093457 1.92337158 2.01869141 2.84674316 2.02832031 3.7980957 C2.07234734 7.22594506 2.13396107 10.65254051 2.20751953 14.07983398 C2.23573541 15.56278942 2.25694702 17.04589543 2.27099609 18.52905273 C2.2924192 20.66207997 2.33905782 22.79329606 2.390625 24.92578125 C2.41157227 26.20880127 2.43251953 27.49182129 2.45410156 28.8137207 C2.67469725 32.08999722 2.67469725 32.08999722 5.03808594 33.81713867 C6.0092334 34.40265503 6.0092334 34.40265503 7 35 C7 35.66 7 36.32 7 37 C4.625 36.3125 4.625 36.3125 2 35 C-0.73489259 29.94044872 -1.14001935 24.70041927 -0.87890625 19.04296875 C-0.83056641 17.93115234 -0.78222656 16.81933594 -0.73242188 15.67382812 C-0.67634766 14.52333984 -0.62027344 13.37285156 -0.5625 12.1875 C-0.51029297 11.01767578 -0.45808594 9.84785156 -0.40429688 8.64257812 C-0.27493908 5.76142726 -0.13998535 2.88065085 0 0 Z " fill="#52AAE3" transform="translate(83,32)"/>
<path d="M0 0 C0.33 0 0.66 0 1 0 C1.73396077 7.27164833 1.27917515 12.32696459 -3.2265625 18.25 C-6.96818977 21.94217845 -10.91981212 21.96570832 -15.9375 22.125 C-16.948125 22.08375 -17.95875 22.0425 -19 22 C-19 21.34 -19 20.68 -19 20 C-19.66 20 -20.32 20 -21 20 C-21 19.34 -21 18.68 -21 18 C-20.3709375 18.04640625 -19.741875 18.0928125 -19.09375 18.140625 C-13.02032734 18.39673318 -7.79491842 18.08589539 -3 14 C-1.4057628 10.71213859 -1.4057628 10.71213859 -1 7 C-0.79375 5.700625 -0.5875 4.40125 -0.375 3.0625 C-0.25125 2.051875 -0.1275 1.04125 0 0 Z " fill="#54B3DE" transform="translate(112,50)"/>
<path d="M0 0 C1.29397884 2.58795767 0.90217496 4.08171425 0.5625 6.9375 C0.24463198 9.66955554 0 12.24559358 0 15 C2.07553648 15.5534764 3.84365964 16 6 16 C6.33 16.99 6.66 17.98 7 19 C9.64 19 12.28 19 15 19 C15 19.99 15 20.98 15 22 C11.03016126 22.4861027 7.4959743 22.83203065 3.9140625 20.83984375 C0.52856657 18.04716672 -2.15681377 15.42672773 -3 11 C-2.89992374 6.76343838 -2.39921072 3.59881608 0 0 Z " fill="#3FE3D9" transform="translate(87,138)"/>
<path d="M0 0 C-5.63405219 4.46838622 -10.74739791 4.27825802 -17.75 4.62109375 C-21.14313578 4.76709073 -21.14313578 4.76709073 -24 7 C-24 6.01 -24 5.02 -24 4 C-8.12287141 -2.38052831 -8.12287141 -2.38052831 0 0 Z " fill="#50BAEC" transform="translate(191,68)"/>
<path d="M0 0 C0.33 0 0.66 0 1 0 C1.27720876 2.39544524 1.52225728 4.78727034 1.75 7.1875 C1.87181641 8.19780273 1.87181641 8.19780273 1.99609375 9.22851562 C2.31825618 12.89758773 2.14219566 14.76539272 0.21484375 17.9453125 C-2.50372109 20.46729681 -4.38204797 20.59800533 -8 21 C-8.33 21.66 -8.66 22.32 -9 23 C-9 20.69 -9 18.38 -9 16 C-7.88625 15.773125 -6.7725 15.54625 -5.625 15.3125 C-3.59650465 14.62206843 -3.59650465 14.62206843 -2 13 C-0.73917222 8.7142678 -0.31083844 4.4468928 0 0 Z " fill="#34D2DC" transform="translate(110,112)"/>
<path d="M0 0 C4.4725679 2.23628395 6.77075233 4.54150467 9 9 C8.34 9 7.68 9 7 9 C7 8.34 7 7.68 7 7 C6.01 6.67 5.02 6.34 4 6 C4 5.34 4 4.68 4 4 C-2.1677468 3.02099257 -8.11585767 2.42568773 -14 5 C-14.33 5.99 -14.66 6.98 -15 8 C-15.99 8.33 -16.98 8.66 -18 9 C-17.06600348 5.26401391 -16.06145556 4.04640522 -12.9375 1.6875 C-8.68809365 -0.48146782 -4.67612093 -0.84323492 0 0 Z " fill="#63A6D1" transform="translate(184,45)"/>
<path d="M0 0 C1.41750563 0.11509661 2.83401169 0.24253658 4.25 0.375 C5.03890625 0.44460937 5.8278125 0.51421875 6.640625 0.5859375 C9 1 9 1 11.0078125 2.0078125 C13.92912133 3.46273886 16.75999178 3.44252437 19.9765625 3.65625 C22 4 22 4 24 6 C23.67 6.99 23.34 7.98 23 9 C22.34 8.01 21.68 7.02 21 6 C17.85329792 5.5251197 17.85329792 5.5251197 14.25 5.5 C9.02253898 5.36653291 5.50031846 4.7486975 1 2 C0.67 1.34 0.34 0.68 0 0 Z " fill="#69B4DA" transform="translate(5,67)"/>
<path d="M0 0 C0 0.66 0 1.32 0 2 C0.99 2.33 1.98 2.66 3 3 C2.01 4.485 2.01 4.485 1 6 C-0.32 6 -1.64 6 -3 6 C-3.33 6.99 -3.66 7.98 -4 9 C-4.33 7.02 -4.66 5.04 -5 3 C-5.66 3 -6.32 3 -7 3 C-7 2.34 -7 1.68 -7 1 C-4.53721199 -0.231394 -2.7204945 -0.07159196 0 0 Z " fill="#3BB4E0" transform="translate(143,69)"/>
<path d="M0 0 C1.98 0 3.96 0 6 0 C4.625 2.5 4.625 2.5 3 5 C2.34 5 1.68 5 1 5 C1 8.96 1 12.92 1 17 C0.34 17 -0.32 17 -1 17 C-2.13253652 10.77104914 -1.70366626 6.08251096 0 0 Z " fill="#28E1DA" transform="translate(88,136)"/>
<path d="M0 0 C8.59196291 -0.16846986 8.59196291 -0.16846986 12 1 C13.3125 3.0625 13.3125 3.0625 14 5 C11.74778616 6.36741555 10.47442242 7.04066478 7.8125 6.8125 C7.214375 6.544375 6.61625 6.27625 6 6 C5.67 5.01 5.34 4.02 5 3 C2.49552484 1.78130071 2.49552484 1.78130071 0 1 C0 0.67 0 0.34 0 0 Z " fill="#528EE7" transform="translate(122,8)"/>
<path d="M0 0 C0 0.66 0 1.32 0 2 C-0.99 2.33 -1.98 2.66 -3 3 C-4.13086283 5.06407364 -4.13086283 5.06407364 -5 7.5 C-5.9375 9.96875 -5.9375 9.96875 -7 12 C-7.99 12.33 -8.98 12.66 -10 13 C-9.93006145 9.50307233 -9.78999373 6.91504299 -7.4453125 4.19921875 C-2.61470764 -0 -2.61470764 -0 0 0 Z " fill="#6296D5" transform="translate(121,6)"/>
<path d="M0 0 C0.99 0.33 1.98 0.66 3 1 C2.67 2.98 2.34 4.96 2 7 C1.01 7.33 0.02 7.66 -1 8 C-1 8.66 -1 9.32 -1 10 C-1.66 10 -2.32 10 -3 10 C-3.36923077 3.47692308 -3.36923077 3.47692308 -1.5 1.0625 C-1.005 0.711875 -0.51 0.36125 0 0 Z " fill="#558FE5" transform="translate(62,10)"/>
<path d="M0 0 C5.86103363 5.5604678 5.86103363 5.5604678 6.11352539 9.99291992 C6.10828857 10.73131104 6.10305176 11.46970215 6.09765625 12.23046875 C6.09443359 13.03291016 6.09121094 13.83535156 6.08789062 14.66210938 C6.07951172 15.49548828 6.07113281 16.32886719 6.0625 17.1875 C6.05798828 18.03248047 6.05347656 18.87746094 6.04882812 19.74804688 C6.03705403 21.83206155 6.0191189 23.91603977 6 26 C5.67 26 5.34 26 5 26 C5 20.39 5 14.78 5 9 C4.34 9 3.68 9 3 9 C2.01 6.03 1.02 3.06 0 0 Z " fill="#6692D0" transform="translate(134,9)"/>
<path d="M0 0 C0.125 2.875 0.125 2.875 0 6 C-0.66 6.66 -1.32 7.32 -2 8 C-2.66 7.67 -3.32 7.34 -4 7 C-4.33333333 5 -4.66666667 3 -5 1 C-5.66 0.67 -6.32 0.34 -7 0 C-4.3333581 -1.33332095 -2.83319697 -0.67102033 0 0 Z " fill="#30CDE1" transform="translate(40,105)"/>
<path d="M0 0 C0.46921875 0.49113281 0.9384375 0.98226562 1.421875 1.48828125 C5.2815329 3.75144429 8.86511262 3.32110204 13.25 3.1875 C14.09046875 3.17396484 14.9309375 3.16042969 15.796875 3.14648438 C17.86485938 3.11123464 19.93251271 3.0574302 22 3 C22 3.66 22 4.32 22 5 C15.07 5 8.14 5 1 5 C0.67 3.35 0.34 1.7 0 0 Z " fill="#67B1D0" transform="translate(140,65)"/>
<path d="M0 0 C1.28820226 2.57640452 0.87432842 3.97526072 0.5 6.8125 C0.08353973 10.45520945 -0.06916549 13.43611504 1 17 C-1.85075158 15.01686847 -2.07766501 13.66160245 -2.875 10.1875 C-3.27712971 6.08274203 -2.19695097 3.51512156 0 0 Z " fill="#57D5CF" transform="translate(87,138)"/>
<path d="M0 0 C2.45234885 0.98093954 3.7809268 1.68703828 5.3125 3.875 C6.1132654 6.35009306 5.86325845 7.58287634 5 10 C3.0625 9.5 3.0625 9.5 1 8 C0.31209578 5.30341548 0.18053536 2.7982981 0 0 Z " fill="#20DEDA" transform="translate(103,136)"/>
<path d="M0 0 C0.99 0.33 1.98 0.66 3 1 C2.01 1.495 2.01 1.495 1 2 C1.433125 2.48210937 1.86625 2.96421875 2.3125 3.4609375 C2.869375 4.09257812 3.42625 4.72421875 4 5.375 C4.556875 6.00148437 5.11375 6.62796875 5.6875 7.2734375 C7 9 7 9 7 11 C5.0625 10.1875 5.0625 10.1875 3 9 C2.67 8.01 2.34 7.02 2 6 C-0.00016466 4.79117904 -0.00016466 4.79117904 -2 4 C-2 3.01 -2 2.02 -2 1 C-1.34 0.67 -0.68 0.34 0 0 Z " fill="#4CD0D4" transform="translate(104,132)"/>
<path d="M0 0 C0.99 0.33 1.98 0.66 3 1 C2.67 2.98 2.34 4.96 2 7 C0.35 7.33 -1.3 7.66 -3 8 C-2.67 6.35 -2.34 4.7 -2 3 C-1.34 3 -0.68 3 0 3 C0 2.01 0 1.02 0 0 Z " fill="#5499E2" transform="translate(83,16)"/>
<path d="M0 0 C-4.48975325 1.49658442 -9.04317051 1.39065522 -13.75 1.62109375 C-17.14313578 1.76709073 -17.14313578 1.76709073 -20 4 C-20 3.01 -20 2.02 -20 1 C-17.1009483 -0.44952585 -14.34824524 -0.39046033 -11.125 -0.625 C-9.89007813 -0.72039062 -8.65515625 -0.81578125 -7.3828125 -0.9140625 C-4.58381341 -0.98516871 -2.61840266 -0.88157276 0 0 Z " fill="#66B2D8" transform="translate(187,71)"/>
<path d="M0 0 C0 0.33 0 0.66 0 1 C-1.258125 1.28875 -2.51625 1.5775 -3.8125 1.875 C-6.8539399 2.57303539 -8.30669878 3.20446585 -11 5 C-11 3.68 -11 2.36 -11 1 C-7.2297564 -1.56376565 -4.32597804 -0.83191885 0 0 Z " fill="#5DB2DA" transform="translate(125,71)"/>
<path d="M0 0 C0.66 0.33 1.32 0.66 2 1 C0.9802693 4.77300358 0.34127338 5.80206144 -3.125 7.8125 C-4.07375 8.204375 -5.0225 8.59625 -6 9 C-6 8.01 -6 7.02 -6 6 C-5.01 6 -4.02 6 -3 6 C-3 5.01 -3 4.02 -3 3 C-2.01 3 -1.02 3 0 3 C0 2.01 0 1.02 0 0 Z " fill="#45DCCF" transform="translate(108,151)"/>
<path d="M0 0 C2.64 0.33 5.28 0.66 8 1 C8 1.99 8 2.98 8 4 C5.36 3.67 2.72 3.34 0 3 C0 2.01 0 1.02 0 0 Z " fill="#49C8DD" transform="translate(146,110)"/>
<path d="M0 0 C0.33 1.32 0.66 2.64 1 4 C1.66 4 2.32 4 3 4 C3.98120464 7.05263664 3.98120464 8.94736336 3 12 C2.34 12 1.68 12 1 12 C0.67 8.04 0.34 4.08 0 0 Z " fill="#3CD3E3" transform="translate(137,92)"/>
<path d="M0 0 C1.2065625 0.0309375 1.2065625 0.0309375 2.4375 0.0625 C2.7675 1.0525 3.0975 2.0425 3.4375 3.0625 C-0.1925 3.0625 -3.8225 3.0625 -7.5625 3.0625 C-6.2425 2.4025 -4.9225 1.7425 -3.5625 1.0625 C-2.5625 0.0625 -2.5625 0.0625 0 0 Z " fill="#5CB1DC" transform="translate(70.5625,68.9375)"/>
<path d="M0 0 C2.0625 0.4375 2.0625 0.4375 4 1 C3.25 2.9375 3.25 2.9375 2 5 C-0.125 5.75 -0.125 5.75 -2 6 C-1.125 1.125 -1.125 1.125 0 0 Z " fill="#4F8EE5" transform="translate(117,10)"/>
<path d="M0 0 C1.32 0 2.64 0 4 0 C4.96070434 2.88211302 5.10581883 4.69850044 5.0625 7.6875 C5.05347656 8.49574219 5.04445312 9.30398437 5.03515625 10.13671875 C5.02355469 10.75160156 5.01195312 11.36648437 5 12 C4.67 12 4.34 12 4 12 C3.87882813 11.38511719 3.75765625 10.77023438 3.6328125 10.13671875 C3.46523437 9.32847656 3.29765625 8.52023438 3.125 7.6875 C2.96257812 6.88699219 2.80015625 6.08648437 2.6328125 5.26171875 C2.05521001 2.74698882 2.05521001 2.74698882 0 0 Z " fill="#60B5DA" transform="translate(134,72)"/>
<path d="M0 0 C5.75 1.75 5.75 1.75 8 4 C7.67 4.66 7.34 5.32 7 6 C4.4375 6.625 4.4375 6.625 2 7 C2.66 6.01 3.32 5.02 4 4 C2.68 2.68 1.36 1.36 0 0 Z " fill="#52D6D9" transform="translate(87,130)"/>
<path d="M0 0 C0.99 0 1.98 0 3 0 C3 0.66 3 1.32 3 2 C4.32 2.66 5.64 3.32 7 4 C6.030625 4.12375 5.06125 4.2475 4.0625 4.375 C2.5465625 4.684375 2.5465625 4.684375 1 5 C0.67 5.66 0.34 6.32 0 7 C0 4.69 0 2.38 0 0 Z " fill="#2DD8D8" transform="translate(101,128)"/>
<path d="M0 0 C0 0.99 0 1.98 0 3 C-2.8125 5.75 -2.8125 5.75 -6 8 C-6.99 7.67 -7.98 7.34 -9 7 C-7.68 6.67 -6.36 6.34 -5 6 C-5 5.34 -5 4.68 -5 4 C-4.34 4 -3.68 4 -3 4 C-2.67 3.01 -2.34 2.02 -2 1 C-1.34 0.67 -0.68 0.34 0 0 Z " fill="#5DC0D2" transform="translate(164,105)"/>
<path d="M0 0 C-0.66 0.66 -1.32 1.32 -2 2 C-4.6015625 1.9765625 -4.6015625 1.9765625 -7.625 1.625 C-8.62789062 1.51414062 -9.63078125 1.40328125 -10.6640625 1.2890625 C-11.82035156 1.14597656 -11.82035156 1.14597656 -13 1 C-13 0.67 -13 0.34 -13 0 C-11.58456585 -0.19658808 -10.16755969 -0.38187546 -8.75 -0.5625 C-7.96109375 -0.66691406 -7.1721875 -0.77132812 -6.359375 -0.87890625 C-3.99467126 -1.00027349 -2.2488963 -0.69633257 0 0 Z " fill="#51B6DA" transform="translate(191,68)"/>
<path d="M0 0 C0.33 0 0.66 0 1 0 C1.33 3.3 1.66 6.6 2 10 C1.34 10 0.68 10 0 10 C-0.33 10.99 -0.66 11.98 -1 13 C-1.66 12.67 -2.32 12.34 -3 12 C-2.690625 11.505 -2.38125 11.01 -2.0625 10.5 C-0.58355618 7.02013219 -0.37597149 3.75971491 0 0 Z " fill="#5AAED8" transform="translate(165,55)"/>
<path d="M0 0 C1.4606285 2.64738916 2 3.89448334 2 7 C2.66 7 3.32 7 4 7 C4.33 8.65 4.66 10.3 5 12 C3.0625 11.0625 3.0625 11.0625 1 9 C0.33825175 6.0141919 0.12794052 3.05138131 0 0 Z " fill="#50C9D8" transform="translate(31,99)"/>
<path d="M0 0 C0.99 0 1.98 0 3 0 C2.6875 1.875 2.6875 1.875 2 4 C1.01 4.66 0.02 5.32 -1 6 C-1.99 5.67 -2.98 5.34 -4 5 C-2.68 4.67 -1.36 4.34 0 4 C0 2.68 0 1.36 0 0 Z " fill="#51C0D6" transform="translate(51,107)"/>
<path d="M0 0 C1.4800841 0.11362262 2.95910074 0.24122908 4.4375 0.375 C5.26121094 0.44460937 6.08492187 0.51421875 6.93359375 0.5859375 C7.95646484 0.79089844 7.95646484 0.79089844 9 1 C9.33 1.66 9.66 2.32 10 3 C8.72125 3.061875 7.4425 3.12375 6.125 3.1875 C5.40570312 3.22230469 4.68640625 3.25710937 3.9453125 3.29296875 C3.30335937 3.19628906 2.66140625 3.09960938 2 3 C1.34 2.01 0.68 1.02 0 0 Z " fill="#57B7DE" transform="translate(5,67)"/>
<path d="M0 0 C0.66 0.33 1.32 0.66 2 1 C1.67 3.97 1.34 6.94 1 10 C0.34 9.67 -0.32 9.34 -1 9 C-1.59355614 6.35139573 -1.74209269 3.70802678 -2 1 C-1.34 0.67 -0.68 0.34 0 0 Z " fill="#4BB7E6" transform="translate(167,53)"/>
<path d="M0 0 C1.70884005 1.62339805 3.37446717 3.29319053 5 5 C5 5.66 5 6.32 5 7 C4.01 7 3.02 7 2 7 C1.34 4.69 0.68 2.38 0 0 Z " fill="#6C91CD" transform="translate(80,9)"/>
</svg>
